Coordinates
version=1
nRows=8
nColumns=34
inDegrees=yes

Units are S.I. units (second, meters, Newtons, ...)
If the header above contains a line with 'inDegrees', this indicates whether rotational values are in degrees (yes) or radians (no).

endheader
time	pelvis_tilt	pelvis_list	pelvis_rotation	pelvis_tx	pelvis_ty	pelvis_tz	hip_flexion_r	hip_adduction_r	hip_rotation_r	knee_angle_r	ankle_angle_r	subtalar_angle_r	mtp_angle_r	hip_flexion_l	hip_adduction_l	hip_rotation_l	knee_angle_l	ankle_angle_l	subtalar_angle_l	mtp_angle_l	lumbar_extension	lumbar_bending	lumbar_rotation	arm_flex_r	arm_add_r	arm_rot_r	elbow_flex_r	pro_sup_r	arm_flex_l	arm_add_l	arm_rot_l	elbow_flex_l	pro_sup_l
      0.00000000	      4.14646767	      1.50107850	   -178.23584186	      0.19587759	      1.10769642	      0.10771640	     -4.61977662	      2.14343497	      2.57260363	     16.15442718	      2.30152807	    -11.16176066	      0.00000000	     24.69993555	     -0.70363039	     -3.95373279	     18.82038240	     -3.91285045	     -5.52797116	      0.00000000	    -16.68451262	      5.73941260	      3.25558149	     16.87761559	    -14.13741012	      9.90093075	    110.40717949	     98.31041533	    -30.50215117	    -17.70815100	     -5.13589590	     86.46562392	     86.84620791
      0.00833330	      7.32496142	      1.84176550	   -178.54985435	      0.19291418	      1.10343533	      0.10799632	     -1.60722097	      1.89055291	      1.67778977	     15.79013880	     -1.90727105	     -7.87160437	      0.00000000	     27.79771243	     -1.07886642	     -4.73457590	     15.97554557	     -7.72843729	     -3.48004629	      0.00000000	    -12.05951723	      5.95621544	      3.97730127	     16.38845322	    -12.43638056	      9.85061560	    112.42904706	     98.39860474	    -31.88338371	    -19.14618284	     -3.96096527	     86.58669876	     87.21970241
      0.01666670	      8.13251994	      2.40408261	   -179.25677245	      0.18905645	      1.10007351	      0.10902063	      0.24099680	      1.99833605	      1.00269267	     18.28893079	     -2.38150846	     -5.07623176	      0.00000000	     28.55837975	     -1.68723476	     -5.31613854	     14.45000176	     -9.89137250	     -0.99362439	      0.00000000	    -10.70171475	      6.21977532	      5.02785687	     15.39907448	    -12.92000286	      9.90838765	    112.88206609	     98.71822535	    -32.81734610	    -19.65075957	     -3.01095277	     89.49122743	     87.60139328
      0.02500000	      9.07408926	      2.87103452	   -179.90567339	      0.18467945	      1.09502463	      0.10968814	      1.34918490	      2.20829742	      1.27889889	     20.15835086	     -3.09974760	     -5.02667914	      0.00000000	     29.24039074	     -2.16886708	     -5.94294173	     12.77771981	    -11.14534000	      1.25307245	      0.00000000	     -8.68945360	      6.59390190	      5.47168278	     13.70092681	    -13.04109730	      9.18168010	    112.04790391	     99.29079127	    -32.99049903	    -19.11408101	     -3.01585783	     91.94061701	     88.19008302
      0.03333330	      9.52302790	      3.40338947	   -180.79057503	      0.18113214	      1.09121487	      0.10977406	      2.44482390	      2.66378831	      2.10480729	     22.92731802	     -2.97095531	     -5.93639175	      0.00000000	     29.83787384	     -3.03687888	     -6.41642359	     12.52285936	    -11.41251301	      2.30048063	      0.00000000	     -7.86719768	      7.05690690	      5.94877863	     12.83056001	    -13.35092303	      9.32687096	    111.72227525	     99.77517310	    -32.60239076	    -18.23326764	     -3.39894363	     93.18041221	     88.68874516
      0.04166670	     10.00565791	      3.70234776	   -181.24453147	      0.17783326	      1.08662307	      0.11001234	      3.69204878	      3.04249971	      2.83781436	     26.20754100	     -2.66850065	     -7.97249009	      0.00000000	     30.46246369	     -3.44220846	     -6.79092102	     12.59805469	    -11.01903965	      3.53666010	      0.00000000	     -6.90248513	      7.06325049	      5.74126485	     12.15794848	    -13.16271228	      9.34645719	    111.35390472	    100.78861924	    -32.07563626	    -17.35195290	     -4.12347664	     94.08118228	     90.10430478
      0.05000000	      9.87890724	      3.71576965	   -181.85091397	      0.17507400	      1.08237732	      0.10998122	      4.48812489	      3.07359788	      3.70714061	     29.91528114	     -1.56944711	     -9.44723670	      0.00000000	     30.56546635	     -3.69278988	     -7.20296147	     13.37811296	    -10.48245570	      3.48772694	      0.00000000	     -6.96115152	      6.75656019	      5.94349827	     11.86287146	    -13.23708459	      9.68398679	    111.05977761	    101.07491405	    -31.14814719	    -16.80753612	     -4.46736325	     94.68891157	     90.58872471
      0.05833330	      9.85887936	      3.70327897	   -182.14239416	      0.17220885	      1.07726999	      0.11032033	      5.53544062	      3.14159182	      4.33574063	     33.93326206	     -0.73486857	    -11.61517985	      0.00000000	     30.71301893	     -3.78764927	     -7.69504852	     14.30389752	     -9.73181655	      3.67245971	      0.00000000	     -6.76569431	      6.36697439	      5.85738473	     11.41511948	    -13.15570934	      9.79409974	    110.67074259	    101.41561974	    -30.11825824	    -16.36618643	     -4.89064832	     95.39523474	     91.43456077
